<svg xmlns="http://www.w3.org/2000/svg" viewBox="0 0 800 700" width="800" height="700">
  <defs>
    <linearGradient id="gA" x1="0%" y1="0%" x2="100%" y2="100%">
      <stop offset="0%" style="stop-color:#10b981"/>
      <stop offset="100%" style="stop-color:#065f46"/>
    </linearGradient>
    <linearGradient id="gB" x1="0%" y1="0%" x2="0%" y2="100%">
      <stop offset="0%" style="stop-color:#10b981"/>
      <stop offset="100%" style="stop-color:#047857"/>
    </linearGradient>
    <linearGradient id="gC" x1="0%" y1="0%" x2="100%" y2="100%">
      <stop offset="0%" style="stop-color:#34d399"/>
      <stop offset="100%" style="stop-color:#10b981"/>
    </linearGradient>
    <filter id="shadow">
      <feDropShadow dx="0" dy="2" stdDeviation="4" flood-color="#000" flood-opacity="0.4"/>
    </filter>
    <filter id="glow">
      <feDropShadow dx="0" dy="0" stdDeviation="6" flood-color="#10b981" flood-opacity="0.5"/>
    </filter>
  </defs>

  <!-- BG -->
  <rect width="800" height="700" fill="#09090b"/>
  <text x="400" y="36" text-anchor="middle" font-family="Arial" font-size="11" fill="#52525b" letter-spacing="4">TROVA — BRAND IDENTITY CONCEPTS</text>

  <!-- ══════════ CONCEPT A — Shield ══════════ -->
  <text x="200" y="68" text-anchor="middle" font-family="Arial" font-size="10" fill="#10b981" letter-spacing="3">CONCEPT A · SHIELD MARK</text>

  <!-- Dark version -->
  <rect x="30" y="78" width="340" height="130" rx="10" fill="#18181b" stroke="#27272a"/>
  <text x="50" y="98" font-family="Arial" font-size="8" fill="#52525b" letter-spacing="2">DARK MODE</text>
  <!-- Shield -->
  <g transform="translate(50,105)" filter="url(#shadow)">
    <path d="M24,0 L48,0 L48,36 L36,50 L24,36 L24,0 Z" fill="url(#gA)" rx="3"/>
    <polyline points="30,10 36,30 42,10" fill="none" stroke="white" stroke-width="3" stroke-linecap="round" stroke-linejoin="round"/>
    <line x1="30" y1="10" x2="42" y2="10" stroke="white" stroke-width="3" stroke-linecap="round"/>
  </g>
  <text x="115" y="135" font-family="Arial Black" font-weight="900" font-size="32" fill="#f4f4f5" letter-spacing="-1">trova</text>
  <text x="116" y="155" font-family="Arial" font-size="9" fill="#10b981" letter-spacing="5">ESCROW</text>
  <text x="116" y="172" font-family="Arial" font-size="9" fill="#52525b" letter-spacing="2">secure · fast · trusted</text>

  <!-- Light version -->
  <rect x="390" y="78" width="340" height="130" rx="10" fill="#ffffff" stroke="#e4e4e7"/>
  <text x="410" y="98" font-family="Arial" font-size="8" fill="#a1a1aa" letter-spacing="2">LIGHT MODE</text>
  <g transform="translate(410,105)" filter="url(#shadow)">
    <path d="M24,0 L48,0 L48,36 L36,50 L24,36 L24,0 Z" fill="url(#gA)"/>
    <polyline points="30,10 36,30 42,10" fill="none" stroke="white" stroke-width="3" stroke-linecap="round" stroke-linejoin="round"/>
    <line x1="30" y1="10" x2="42" y2="10" stroke="white" stroke-width="3" stroke-linecap="round"/>
  </g>
  <text x="475" y="135" font-family="Arial Black" font-weight="900" font-size="32" fill="#09090b" letter-spacing="-1">trova</text>
  <text x="476" y="155" font-family="Arial" font-size="9" fill="#10b981" letter-spacing="5">ESCROW</text>
  <text x="476" y="172" font-family="Arial" font-size="9" fill="#71717a" letter-spacing="2">secure · fast · trusted</text>

  <!-- ══════════ CONCEPT B — Hexagon Lock ══════════ -->
  <text x="200" y="238" text-anchor="middle" font-family="Arial" font-size="10" fill="#10b981" letter-spacing="3">CONCEPT B · HEXAGON LOCK</text>

  <rect x="30" y="248" width="340" height="130" rx="10" fill="#18181b" stroke="#27272a"/>
  <text x="50" y="268" font-family="Arial" font-size="8" fill="#52525b" letter-spacing="2">DARK MODE</text>
  <g transform="translate(44,275)" filter="url(#shadow)">
    <polygon points="30,0 58,16 58,46 30,62 2,46 2,16" fill="url(#gB)"/>
    <rect x="18" y="36" width="24" height="18" rx="3" fill="#065f46"/>
    <path d="M21,36 L21,27 Q30,18 39,27 L39,36" fill="none" stroke="#065f46" stroke-width="3" stroke-linecap="round"/>
    <circle cx="30" cy="44" r="3" fill="#a7f3d0"/>
    <rect x="28" y="44" width="4" height="5" rx="1.5" fill="#a7f3d0"/>
  </g>
  <text x="118" y="310" font-family="Arial Black" font-weight="900" font-size="32" fill="#f4f4f5" letter-spacing="-1">trova</text>
  <text x="119" y="330" font-family="Arial" font-size="9" fill="#71717a" letter-spacing="3">SECURE ESCROW</text>
  <text x="119" y="347" font-family="Arial" font-size="9" fill="#52525b" letter-spacing="2">secure · fast · trusted</text>

  <rect x="390" y="248" width="340" height="130" rx="10" fill="#ffffff" stroke="#e4e4e7"/>
  <text x="410" y="268" font-family="Arial" font-size="8" fill="#a1a1aa" letter-spacing="2">LIGHT MODE</text>
  <g transform="translate(404,275)" filter="url(#shadow)">
    <polygon points="30,0 58,16 58,46 30,62 2,46 2,16" fill="url(#gB)"/>
    <rect x="18" y="36" width="24" height="18" rx="3" fill="#065f46"/>
    <path d="M21,36 L21,27 Q30,18 39,27 L39,36" fill="none" stroke="#065f46" stroke-width="3" stroke-linecap="round"/>
    <circle cx="30" cy="44" r="3" fill="#a7f3d0"/>
    <rect x="28" y="44" width="4" height="5" rx="1.5" fill="#a7f3d0"/>
  </g>
  <text x="478" y="310" font-family="Arial Black" font-weight="900" font-size="32" fill="#09090b" letter-spacing="-1">trova</text>
  <text x="479" y="330" font-family="Arial" font-size="9" fill="#71717a" letter-spacing="3">SECURE ESCROW</text>
  <text x="479" y="347" font-family="Arial" font-size="9" fill="#a1a1aa" letter-spacing="2">secure · fast · trusted</text>

  <!-- ══════════ CONCEPT C — Cycle ══════════ -->
  <text x="200" y="408" text-anchor="middle" font-family="Arial" font-size="10" fill="#10b981" letter-spacing="3">CONCEPT C · CYCLE MARK</text>

  <rect x="30" y="418" width="340" height="130" rx="10" fill="#18181b" stroke="#27272a"/>
  <text x="50" y="438" font-family="Arial" font-size="8" fill="#52525b" letter-spacing="2">DARK MODE</text>
  <circle cx="90" cy="482" r="35" fill="url(#gC)" filter="url(#glow)"/>
  <circle cx="90" cy="482" r="26" fill="none" stroke="rgba(255,255,255,0.2)" stroke-width="1.5"/>
  <path d="M66,482 A24,24 0 0,1 114,482" fill="none" stroke="white" stroke-width="3.5" stroke-linecap="round"/>
  <polygon points="114,482 106,472 122,472" fill="white"/>
  <path d="M114,482 A24,24 0 0,1 66,482" fill="none" stroke="rgba(255,255,255,0.45)" stroke-width="3.5" stroke-linecap="round"/>
  <polygon points="66,482 74,492 58,492" fill="rgba(255,255,255,0.45)"/>
  <text x="90" y="489" text-anchor="middle" font-family="Arial Black" font-weight="900" font-size="16" fill="white">T</text>
  <text x="140" y="468" font-family="Arial Black" font-weight="900" font-size="32" fill="#f4f4f5" letter-spacing="-1">trova</text>
  <text x="141" y="488" font-family="Arial" font-size="9" fill="#10b981" letter-spacing="3">TRUST·TRADE·DELIVER</text>
  <text x="141" y="505" font-family="Arial" font-size="9" fill="#52525b" letter-spacing="2">secure · fast · trusted</text>

  <rect x="390" y="418" width="340" height="130" rx="10" fill="#ffffff" stroke="#e4e4e7"/>
  <text x="410" y="438" font-family="Arial" font-size="8" fill="#a1a1aa" letter-spacing="2">LIGHT MODE</text>
  <circle cx="450" cy="482" r="35" fill="url(#gC)" filter="url(#glow)"/>
  <circle cx="450" cy="482" r="26" fill="none" stroke="rgba(255,255,255,0.3)" stroke-width="1.5"/>
  <path d="M426,482 A24,24 0 0,1 474,482" fill="none" stroke="white" stroke-width="3.5" stroke-linecap="round"/>
  <polygon points="474,482 466,472 482,472" fill="white"/>
  <path d="M474,482 A24,24 0 0,1 426,482" fill="none" stroke="rgba(255,255,255,0.45)" stroke-width="3.5" stroke-linecap="round"/>
  <polygon points="426,482 434,492 418,492" fill="rgba(255,255,255,0.45)"/>
  <text x="450" y="489" text-anchor="middle" font-family="Arial Black" font-weight="900" font-size="16" fill="white">T</text>
  <text x="500" y="468" font-family="Arial Black" font-weight="900" font-size="32" fill="#09090b" letter-spacing="-1">trova</text>
  <text x="501" y="488" font-family="Arial" font-size="9" fill="#10b981" letter-spacing="3">TRUST·TRADE·DELIVER</text>
  <text x="501" y="505" font-family="Arial" font-size="9" fill="#a1a1aa" letter-spacing="2">secure · fast · trusted</text>

  <!-- ══════════ FAVICON STRIP ══════════ -->
  <text x="400" y="578" text-anchor="middle" font-family="Arial" font-size="10" fill="#10b981" letter-spacing="3">FAVICONS AT ALL SIZES</text>

  <!-- Row of favicons -->
  <!-- A 64 -->
  <rect x="30" y="590" width="64" height="64" rx="14" fill="url(#gA)" filter="url(#shadow)"/>
  <path d="M44,600 L60,600 L60,636 L52,646 L44,636 L44,600 Z" fill="none" stroke="white" stroke-width="2.5"/>
  <polyline points="47,608 52,622 57,608" fill="none" stroke="white" stroke-width="2.8" stroke-linecap="round" stroke-linejoin="round"/>
  <line x1="47" y1="608" x2="57" y2="608" stroke="white" stroke-width="2.8" stroke-linecap="round"/>
  <text x="62" y="628" font-family="Arial" font-size="7" fill="#52525b">64px A</text>

  <!-- B 64 -->
  <rect x="120" y="590" width="64" height="64" rx="14" fill="#18181b" stroke="#27272a" filter="url(#shadow)"/>
  <polygon points="152,596 172,606 172,626 152,636 132,626 132,606" fill="url(#gB)"/>
  <rect x="142" y="620" width="20" height="10" rx="2" fill="#065f46"/>
  <path d="M144,620 L144,614 Q152,608 160,614 L160,620" fill="none" stroke="#065f46" stroke-width="2" stroke-linecap="round"/>
  <circle cx="152" cy="625" r="2" fill="#a7f3d0"/>
  <text x="152" y="628" font-family="Arial" font-size="7" fill="#52525b"/>
  <text x="152" y="660" text-anchor="middle" font-family="Arial" font-size="7" fill="#52525b">64px B</text>

  <!-- C 64 -->
  <circle cx="242" cy="622" r="32" fill="url(#gC)" filter="url(#glow)"/>
  <text x="242" y="630" text-anchor="middle" font-family="Arial Black" font-weight="900" font-size="22" fill="white">T</text>
  <text x="242" y="660" text-anchor="middle" font-family="Arial" font-size="7" fill="#52525b">64px C</text>

  <!-- 32px versions -->
  <rect x="310" y="606" width="32" height="32" rx="7" fill="url(#gA)"/>
  <path d="M318,611 L334,611 L334,629 L326,636 L318,629 Z" fill="none" stroke="white" stroke-width="1.8"/>
  <polyline points="321,616 326,625 331,616" fill="none" stroke="white" stroke-width="2" stroke-linecap="round" stroke-linejoin="round"/>
  <line x1="321" y1="616" x2="331" y2="616" stroke="white" stroke-width="2" stroke-linecap="round"/>
  <text x="326" y="648" text-anchor="middle" font-family="Arial" font-size="7" fill="#52525b">32px</text>

  <rect x="360" y="606" width="32" height="32" rx="7" fill="#18181b" stroke="#27272a"/>
  <polygon points="376,609 389,615 389,625 376,631 363,625 363,615" fill="url(#gB)"/>
  <rect x="370" y="620" width="12" height="8" rx="1.5" fill="#065f46"/>
  <path d="M372,620 L372,616 Q376,611 380,616 L380,620" fill="none" stroke="#065f46" stroke-width="1.5" stroke-linecap="round"/>
  <circle cx="376" cy="624" r="1.5" fill="#a7f3d0"/>
  <text x="376" y="648" text-anchor="middle" font-family="Arial" font-size="7" fill="#52525b">32px</text>

  <circle cx="426" cy="622" r="16" fill="url(#gC)"/>
  <text x="426" y="628" text-anchor="middle" font-family="Arial Black" font-weight="900" font-size="12" fill="white">T</text>
  <text x="426" y="648" text-anchor="middle" font-family="Arial" font-size="7" fill="#52525b">32px</text>

  <!-- 16px versions -->
  <rect x="470" y="614" width="16" height="16" rx="3" fill="url(#gA)"/>
  <text x="478" y="626" text-anchor="middle" font-family="Arial Black" font-size="9" fill="white">T</text>
  <text x="478" y="648" text-anchor="middle" font-family="Arial" font-size="7" fill="#52525b">16px</text>

  <rect x="510" y="614" width="16" height="16" rx="3" fill="#10b981"/>
  <polygon points="518,616 522,618 522,622 518,624 514,622 514,618" fill="#065f46"/>
  <text x="518" y="648" text-anchor="middle" font-family="Arial" font-size="7" fill="#52525b">16px</text>

  <circle cx="558" cy="622" r="8" fill="url(#gC)"/>
  <text x="558" y="626" text-anchor="middle" font-family="Arial Black" font-size="7" fill="white">T</text>
  <text x="558" y="648" text-anchor="middle" font-family="Arial" font-size="7" fill="#52525b">16px</text>

  <!-- Sidebar preview -->
  <rect x="610" y="590" width="160" height="70" rx="8" fill="#18181b" stroke="#27272a"/>
  <text x="625" y="608" font-family="Arial" font-size="7" fill="#52525b" letter-spacing="1">SIDEBAR PREVIEW</text>
  <!-- mini shield -->
  <rect x="622" y="615" width="22" height="22" rx="5" fill="url(#gA)"/>
  <path d="M628,618 L638,618 L638,630 L633,634 L628,630 Z" fill="none" stroke="white" stroke-width="1.5"/>
  <polyline points="630,621 633,627 636,621" fill="none" stroke="white" stroke-width="1.5" stroke-linecap="round" stroke-linejoin="round"/>
  <line x1="630" y1="621" x2="636" y2="621" stroke="white" stroke-width="1.5" stroke-linecap="round"/>
  <text x="650" y="628" font-family="Arial Black" font-weight="900" font-size="14" fill="#f4f4f5">trova</text>
  <text x="651" y="640" font-family="Arial" font-size="6" fill="#10b981" letter-spacing="2">ESCROW</text>

  <!-- Pick note -->
  <text x="400" y="685" text-anchor="middle" font-family="Arial" font-size="10" fill="#71717a">Pick A, B, or C — then we implement it everywhere across the codebase</text>

</svg>
